<svg width="250" height="250" viewBox="0 0 250 250" fill="none" xmlns="http://www.w3.org/2000/svg">
<path fill-rule="evenodd" clip-rule="evenodd" d="M155.095 145.917C140.567 156.625 119.51 162.338 101.38 162.338C75.9587 162.338 53.0732 152.936 35.7594 137.298C34.3991 136.068 35.6179 134.393 37.2503 135.35C55.9352 146.222 79.0385 152.762 102.903 152.762C118.998 152.762 136.704 149.432 152.984 142.522C155.443 141.477 157.5 144.132 155.095 145.917" fill="#FF9900"/>
<path fill-rule="evenodd" clip-rule="evenodd" d="M161.135 139.007C159.285 136.634 148.86 137.886 144.18 138.441C142.755 138.615 142.537 137.374 143.821 136.482C152.124 130.638 165.749 132.325 167.338 134.284C168.927 136.253 166.924 149.911 159.122 156.429C157.925 157.43 156.782 156.897 157.315 155.57C159.067 151.195 162.996 141.39 161.135 139.007" fill="#FF9900"/>
<path fill-rule="evenodd" clip-rule="evenodd" d="M144.507 95.227V89.5465C144.507 88.6868 145.16 88.11 145.943 88.11H171.375C172.191 88.11 172.844 88.6976 172.844 89.5465V94.4109C172.833 95.227 172.148 96.2935 170.929 97.9803L157.75 116.796C162.647 116.676 167.817 117.405 172.257 119.908C173.258 120.474 173.53 121.301 173.606 122.117V128.179C173.606 129.006 172.692 129.974 171.734 129.474C163.91 125.371 153.517 124.925 144.866 129.517C143.984 129.996 143.059 129.038 143.059 128.211V122.455C143.059 121.53 143.07 119.952 143.995 118.548L159.263 96.6526H145.976C145.16 96.6526 144.507 96.0759 144.507 95.227" fill="black"/>
<path fill-rule="evenodd" clip-rule="evenodd" d="M51.7346 130.671H43.9973C43.2573 130.616 42.6697 130.061 42.6152 129.354V89.6444C42.6152 88.85 43.2791 88.2188 44.1061 88.2188H51.3211C52.072 88.2515 52.6705 88.8282 52.7249 89.5465V94.7374H52.8664C54.7491 89.7206 58.2858 87.3809 63.0523 87.3809C67.8949 87.3809 70.9202 89.7206 73.0967 94.7374C74.9684 89.7206 79.2234 87.3809 83.7831 87.3809C87.0261 87.3809 90.5737 88.7194 92.7393 91.7229C95.1878 95.0638 94.6872 99.9173 94.6872 104.172L94.6764 129.234C94.6764 130.029 94.0125 130.671 93.1855 130.671H85.459C84.6864 130.616 84.0661 129.996 84.0661 129.234V108.188C84.0661 106.512 84.2184 102.333 83.8484 100.744C83.2717 98.0782 81.5414 97.3273 79.2996 97.3273C77.4279 97.3273 75.469 98.5788 74.6746 100.581C73.8802 102.584 73.9564 105.935 73.9564 108.188V129.234C73.9564 130.029 73.2926 130.671 72.4655 130.671H64.7391C63.9555 130.616 63.3461 129.996 63.3461 129.234L63.3352 108.188C63.3352 103.759 64.0643 97.2403 58.5688 97.2403C53.0079 97.2403 53.2255 103.596 53.2255 108.188V129.234C53.2255 130.029 52.5617 130.671 51.7347 130.671" fill="black"/>
<path fill-rule="evenodd" clip-rule="evenodd" d="M194.739 87.3809C206.22 87.3809 212.434 97.2403 212.434 109.777C212.434 121.889 205.567 131.498 194.739 131.498C183.465 131.498 177.328 121.638 177.328 109.352C177.328 96.99 183.542 87.3809 194.739 87.3809V87.3809ZM194.805 95.4882C189.102 95.4882 188.743 103.258 188.743 108.101C188.743 112.954 188.667 123.314 194.739 123.314C200.736 123.314 201.019 114.957 201.019 109.864C201.019 106.512 200.877 102.507 199.865 99.3297C198.994 96.5656 197.264 95.4882 194.805 95.4882" fill="black"/>
<path fill-rule="evenodd" clip-rule="evenodd" d="M227.321 130.671H219.617C218.844 130.616 218.224 129.996 218.224 129.234L218.213 89.5138C218.278 88.7847 218.92 88.2188 219.704 88.2188H226.875C227.55 88.2515 228.105 88.7085 228.257 89.3288V95.4012H228.399C230.564 89.9709 233.6 87.3809 238.944 87.3809C242.415 87.3809 245.799 88.6324 247.976 92.0603C250 95.2379 250 100.581 250 104.423V129.419C249.913 130.116 249.271 130.671 248.509 130.671H240.75C240.043 130.616 239.455 130.094 239.379 129.419V107.851C239.379 103.509 239.879 97.1532 234.536 97.1532C232.654 97.1532 230.923 98.4156 230.064 100.331C228.975 102.758 228.834 105.174 228.834 107.851V129.234C228.823 130.029 228.148 130.671 227.321 130.671" fill="black"/>
<path fill-rule="evenodd" clip-rule="evenodd" d="M124.233 111.703C124.233 114.717 124.309 117.231 122.785 119.908C121.556 122.085 119.597 123.423 117.431 123.423C114.46 123.423 112.719 121.16 112.719 117.819C112.719 111.224 118.628 110.027 124.233 110.027V111.703ZM132.035 130.562C131.524 131.019 130.784 131.052 130.207 130.747C127.639 128.614 127.171 127.624 125.767 125.589C121.523 129.92 118.509 131.215 113.013 131.215C106.495 131.215 101.434 127.199 101.434 119.157C101.434 112.878 104.83 108.601 109.683 106.512C113.884 104.662 119.749 104.336 124.233 103.824V102.823C124.233 100.984 124.374 98.8073 123.286 97.2185C122.35 95.7929 120.544 95.2053 118.944 95.2053C115.995 95.2053 113.372 96.7179 112.73 99.852C112.6 100.549 112.088 101.234 111.381 101.267L103.883 100.461C103.252 100.32 102.544 99.8085 102.729 98.84C104.449 89.7424 112.676 87 120.032 87C123.798 87 128.716 88.0012 131.687 90.8523C135.452 94.3673 135.093 99.0576 135.093 104.161V116.219C135.093 119.843 136.595 121.432 138.01 123.391C138.5 124.087 138.608 124.925 137.977 125.447C136.399 126.764 133.592 129.213 132.046 130.584L132.035 130.562" fill="black"/>
<path fill-rule="evenodd" clip-rule="evenodd" d="M22.7985 111.703C22.7985 114.717 22.8747 117.231 21.3512 119.908C20.1214 122.085 18.1735 123.423 15.997 123.423C13.0262 123.423 11.2959 121.16 11.2959 117.819C11.2959 111.224 17.205 110.027 22.7985 110.027V111.703ZM30.6011 130.562C30.0897 131.019 29.3497 131.052 28.7729 130.747C26.2047 128.614 25.7476 127.624 24.3329 125.589C20.0888 129.92 17.0853 131.215 11.5788 131.215C5.07116 131.215 0 127.199 0 119.157C0 112.878 3.40617 108.601 8.24881 106.512C12.4494 104.662 18.315 104.336 22.7985 103.824V102.823C22.7985 100.984 22.94 98.8073 21.8626 97.2185C20.9159 95.7929 19.1094 95.2053 17.5206 95.2053C14.5715 95.2053 11.9379 96.7179 11.2959 99.852C11.1653 100.549 10.6538 101.234 9.95734 101.267L2.44853 100.461C1.81735 100.32 1.12088 99.8085 1.295 98.84C3.02529 89.7424 11.2415 87 18.5979 87C22.3632 87 27.282 88.0012 30.2529 90.8523C34.0182 94.3673 33.6591 99.0576 33.6591 104.161V116.219C33.6591 119.843 35.1608 121.432 36.5756 123.391C37.0761 124.087 37.185 124.925 36.5538 125.447C34.9758 126.764 32.1682 129.213 30.6229 130.584L30.6011 130.562" fill="black"/>
</svg>
